<?xml version="1.0" encoding="UTF-8"?>
<svg id="Capa_1" data-name="Capa 1" xmlns="http://www.w3.org/2000/svg" viewBox="0 0 440.11 100">
  <defs>
    <style>
      .cls-1 {
        fill: #f18c79;
      }

      .cls-2 {
        fill: #333;
      }
    </style>
  </defs>
  <g>
    <path class="cls-2" d="M161.99,76.37c-4.83,0-9.23-1.16-13.2-3.47-3.97-2.32-7.1-5.46-9.38-9.43-2.28-3.97-3.42-8.4-3.42-13.3s1.14-9.35,3.42-13.35c2.28-4,5.41-7.16,9.38-9.48,3.97-2.32,8.37-3.47,13.2-3.47s8.67.88,12.11,2.63c3.44,1.75,6.19,4.02,8.24,6.8,2.05,2.78,3.54,5.82,4.47,9.13h-11.12c-.99-2.51-2.65-4.63-4.96-6.35-2.32-1.72-5.23-2.58-8.74-2.58-2.71,0-5.21.7-7.49,2.08s-4.09,3.34-5.41,5.86c-1.32,2.52-1.99,5.43-1.99,8.73s.66,6.12,1.99,8.64c1.32,2.52,3.13,4.47,5.41,5.86s4.78,2.08,7.49,2.08c3.57,0,6.55-.91,8.93-2.73,2.38-1.82,4.04-4.05,4.96-6.7h11.12c-.79,3.38-2.23,6.5-4.32,9.38-2.08,2.88-4.86,5.21-8.34,7-3.47,1.79-7.59,2.68-12.36,2.68Z"/>
    <path class="cls-2" d="M219.26,76.37c-4.9,0-9.33-1.14-13.3-3.42s-7.11-5.43-9.43-9.43c-2.32-4-3.47-8.45-3.47-13.35s1.16-9.36,3.47-13.4c2.32-4.04,5.46-7.2,9.43-9.48,3.97-2.28,8.4-3.42,13.3-3.42s9.43,1.14,13.4,3.42c3.97,2.28,7.08,5.43,9.33,9.43,2.25,4,3.38,8.39,3.38,13.15v2.98h-41.19c.33,2.58,1.21,4.93,2.63,7.05,1.42,2.12,3.23,3.79,5.41,5.01,2.18,1.22,4.53,1.84,7.05,1.84,3.44,0,6.35-.71,8.74-2.13,2.38-1.42,4.13-3.19,5.26-5.31h11.32c-1.66,4.76-4.62,8.8-8.88,12.11-4.27,3.31-9.74,4.96-16.43,4.96ZM233.75,45.2c-.33-2.12-1.14-4.07-2.43-5.86-1.29-1.79-2.98-3.21-5.06-4.27-2.08-1.06-4.42-1.59-7-1.59s-4.81.53-6.9,1.59c-2.08,1.06-3.79,2.48-5.11,4.27-1.32,1.79-2.25,3.74-2.78,5.86h29.28Z"/>
    <path class="cls-2" d="M275.64,76.37c-4.63,0-8.6-.81-11.91-2.43-3.31-1.62-5.96-3.71-7.94-6.25-1.99-2.55-3.38-5.34-4.17-8.39h11.32c.86,2.18,2.37,4.02,4.52,5.51,2.15,1.49,4.88,2.23,8.19,2.23,3.64,0,6.29-.56,7.94-1.69,1.65-1.12,2.48-2.65,2.48-4.57,0-1.19-.5-2.17-1.49-2.93-.99-.76-2.25-1.37-3.77-1.84-1.52-.46-3.64-.99-6.35-1.59-4.24-.93-7.69-1.89-10.37-2.88-2.68-.99-5.01-2.53-7-4.62-1.98-2.08-2.98-4.91-2.98-8.49,0-2.58.78-5,2.33-7.25,1.55-2.25,3.84-4.04,6.85-5.36,3.01-1.32,6.63-1.99,10.87-1.99,6.49,0,11.61,1.51,15.39,4.52,3.77,3.01,6.15,6.7,7.15,11.07h-11.12c-.66-1.72-1.95-3.19-3.87-4.42-1.92-1.22-4.43-1.84-7.54-1.84-1.99,0-3.64.25-4.96.75-1.32.5-2.32,1.14-2.98,1.94-.66.79-.99,1.65-.99,2.58,0,1.19.5,2.17,1.49,2.93.99.76,2.25,1.37,3.77,1.84,1.52.46,3.64.99,6.35,1.59,4.23.93,7.69,1.89,10.37,2.88,2.68.99,5.01,2.53,7,4.62,1.99,2.08,2.98,4.91,2.98,8.49,0,2.85-.83,5.44-2.48,7.79-1.66,2.35-4.12,4.24-7.4,5.66-3.28,1.42-7.16,2.13-11.66,2.13Z"/>
    <path class="cls-2" d="M312.07,17.11c-1.79,0-3.34-.65-4.67-1.94-1.32-1.29-1.99-2.79-1.99-4.52s.66-3.23,1.99-4.52c1.32-1.29,2.88-1.94,4.67-1.94s3.44.65,4.76,1.94c1.32,1.29,1.99,2.8,1.99,4.52s-.66,3.23-1.99,4.52c-1.32,1.29-2.91,1.94-4.76,1.94ZM306.71,75.18V25.05h10.82v50.13h-10.82Z"/>
    <path class="cls-2" d="M350.88,76.37c-4.3,0-8.26-1.11-11.86-3.33-3.61-2.22-6.47-5.33-8.59-9.33-2.12-4-3.18-8.52-3.18-13.55s1.06-9.64,3.18-13.65c2.12-4,4.98-7.11,8.59-9.33,3.61-2.22,7.56-3.33,11.86-3.33,3.11,0,5.84.51,8.19,1.54,2.35,1.03,4.25,2.22,5.71,3.57,1.46,1.36,2.42,2.47,2.88,3.33h.3V5.7h10.92v69.48h-10.92v-7.25h-.3c-.46.86-1.42,1.97-2.88,3.33-1.46,1.36-3.36,2.55-5.71,3.57-2.35,1.03-5.08,1.54-8.19,1.54ZM353.06,66.74c2.78,0,5.31-.68,7.59-2.04,2.28-1.36,4.07-3.29,5.36-5.81,1.29-2.51,1.94-5.42,1.94-8.74s-.65-6.32-1.94-8.83c-1.29-2.51-3.08-4.45-5.36-5.81-2.28-1.36-4.81-2.04-7.59-2.04s-5.2.68-7.44,2.04c-2.25,1.36-4.02,3.29-5.31,5.81-1.29,2.52-1.94,5.46-1.94,8.83s.64,6.22,1.94,8.74c1.29,2.52,3.06,4.45,5.31,5.81,2.25,1.36,4.73,2.04,7.44,2.04Z"/>
    <path class="cls-2" d="M412.12,76.37c-4.3,0-8.26-1.11-11.86-3.33-3.61-2.22-6.47-5.33-8.59-9.33-2.12-4-3.18-8.52-3.18-13.55s1.06-9.64,3.18-13.65c2.12-4,4.98-7.11,8.59-9.33,3.61-2.22,7.56-3.33,11.86-3.33,3.11,0,5.84.51,8.19,1.54,2.35,1.03,4.25,2.23,5.71,3.62,1.46,1.39,2.42,2.48,2.88,3.28h.3v-7.25h10.92v50.13h-10.92v-7.25h-.3c-.46.86-1.42,1.97-2.88,3.33-1.46,1.36-3.36,2.55-5.71,3.57-2.35,1.03-5.08,1.54-8.19,1.54ZM414.31,66.74c2.78,0,5.31-.68,7.59-2.04,2.28-1.36,4.07-3.29,5.36-5.81,1.29-2.51,1.94-5.42,1.94-8.74s-.65-6.32-1.94-8.83c-1.29-2.51-3.08-4.45-5.36-5.81-2.28-1.36-4.81-2.04-7.59-2.04s-5.2.68-7.44,2.04c-2.25,1.36-4.02,3.29-5.31,5.81-1.29,2.52-1.94,5.46-1.94,8.83s.64,6.22,1.94,8.74c1.29,2.52,3.06,4.45,5.31,5.81,2.25,1.36,4.73,2.04,7.44,2.04Z"/>
  </g>
  <path class="cls-1" d="M0,6.25C0,2.8,2.8,0,6.25,0h62.5c3.45,0,6.25,2.8,6.25,6.25v12.5c0,3.45,2.8,6.25,6.25,6.25h12.5c3.45,0,6.25,2.8,6.25,6.25v12.5c0,3.45-2.8,6.25-6.25,6.25h-12.5c-3.45,0-6.25-2.8-6.25-6.25v-12.5c0-3.45-2.8-6.25-6.25-6.25H31.23c-3.42.01-6.2,2.78-6.23,6.2v37.57c.01,3.42,2.78,6.2,6.19,6.23h37.56c3.45,0,6.25,2.8,6.25,6.25v12.5c0,3.45-2.8,6.25-6.25,6.25H6.25c-3.45,0-6.25-2.8-6.25-6.25V6.25Z"/>
</svg>